<?xml version="1.0" standalone="no"?>
<!DOCTYPE svg PUBLIC "-//W3C//DTD SVG 1.1//EN" "http://www.w3.org/Graphics/SVG/1.1/DTD/svg11.dtd" >
<svg xmlns="http://www.w3.org/2000/svg" xmlns:xlink="http://www.w3.org/1999/xlink" version="1.1" viewBox="0 0 478 512">
   <path fill="currentColor"
d="M456 336q2 1 2 5t-2 5l-94 68q-4 2 -7 1t-3 -6v-32h-86q-7 0 -7 -7v-58q0 -6 7 -6h85v-32q0 -4 4 -6q3 -2 6 0zM301 402q9 0 9 9v45v13q0 8 -9 8h-8h-276h-8q-9 0 -9 -8v-13v-271v-5v-13l133 -132h9h147h12q9 0 9 8v21v207v0v1q0 8 -9 8h-33q-9 0 -9 -8v-186h-108v90
q0 9 -9 9h-91v241h208v-15q0 -9 9 -9h33z" />
</svg>
